<?xml version="1.0" standalone="no"?>
<svg viewBox="0 0 200 200" xmlns="http://www.w3.org/2000/svg">
  <path fill="#FFFFFF" d="M22.2,-33C34.1,-26.9,52.8,-29.8,54.6,-25.1C56.4,-20.5,41.4,-8.4,34.3,1.3C27.3,10.9,28.2,18.1,25.8,24.3C23.4,30.5,17.8,35.8,9.4,43.7C1,51.5,-10.1,61.9,-24.3,65.6C-38.5,69.3,-55.8,66.3,-57,55C-58.1,43.6,-43.1,23.8,-35,11.4C-26.9,-1,-25.7,-6.1,-27.1,-16.2C-28.5,-26.4,-32.5,-41.6,-28.4,-51.2C-24.3,-60.9,-12.2,-64.9,-3.5,-59.5C5.2,-54,10.3,-39.1,22.2,-33Z" transform="translate(100 100)" />
</svg>
